<?xml version="1.0" encoding="utf-8"?>

<svg version="1.1" id="Layer_1" xmlns="http://www.w3.org/2000/svg" xmlns:xlink="http://www.w3.org/1999/xlink" x="0px" y="0px" viewBox="0 0 782 142.41" style="enable-background:new 0 0 782 142.41;" xml:space="preserve">

<g>
&#x9;<g>
&#x9;&#x9;<path d="M250.61,86.27c0-17.72,0-35.43,0-53.15c0-2.33,0-2.34,2.3-2.34c8.81,0,17.62,0,26.44,0c1.82,0,1.88-0.06,1.88-1.87&#xA;&#x9;&#x9;&#x9;c0.01-7.98,0-15.95,0.01-23.93c0-1.95,0.1-2.04,2.05-2.04c14.75,0,29.5,0.01,44.24-0.02c1.23,0,2.07,0.4,2.87,1.32&#xA;&#x9;&#x9;&#x9;c7.41,8.61,14.86,17.19,22.27,25.8c0.66,0.76,1.43,0.74,2.26,0.74c10.25,0,20.5,0,30.75,0.02c0.7,0,1.72-0.38,2.03,0.37&#xA;&#x9;&#x9;&#x9;c0.3,0.72-0.64,1.24-1.11,1.78c-21.71,25.05-43.44,50.1-65.17,75.14c-1.28,1.47-2.56,2.93-3.83,4.41&#xA;&#x9;&#x9;&#x9;c-0.26,0.3-0.72,0.59-0.48,1.06c0.22,0.43,0.74,0.29,1.14,0.31c0.56,0.02,1.11,0.01,1.67,0.01c21.43,0,42.85,0,64.28,0&#xA;&#x9;&#x9;&#x9;c2.5,0,2.5,0,2.5,2.57c0,7.79,0,15.58,0,23.37c0,1.94-0.09,2.02-2.06,2.02c-14.19,0-28.38-0.01-42.57,0.02&#xA;&#x9;&#x9;&#x9;c-1.23,0-2.08-0.4-2.87-1.32c-7.36-8.53-14.77-17.02-22.12-25.56c-0.69-0.8-1.42-1.04-2.41-1.04&#xA;&#x9;&#x9;&#x9;c-10.53,0.02-21.06,0.03-31.58-0.02c-1.39-0.01-1.76,0.53-1.75,1.8c0.03,7.93,0.02,15.86,0.01,23.79c0,2.29-0.03,2.32-2.35,2.32&#xA;&#x9;&#x9;&#x9;c-8.77,0-17.53,0-26.3,0c-2.01,0-2.1-0.1-2.1-2.14C250.61,121.89,250.61,104.08,250.61,86.27z M281.36,71.9c0,1.16,0,2.32,0,3.48&#xA;&#x9;&#x9;&#x9;c0,11.92,0,23.83,0.01,35.75c0,0.53-0.24,1.25,0.35,1.53c0.68,0.31,0.9-0.48,1.23-0.86c3.12-3.55,6.22-7.12,9.32-10.69&#xA;&#x9;&#x9;&#x9;c19.75-22.76,39.49-45.53,59.23-68.3c0.4-0.46,1.19-0.87,0.83-1.6c-0.31-0.62-1.09-0.27-1.67-0.35c-0.14-0.02-0.28,0-0.42,0&#xA;&#x9;&#x9;&#x9;c-22.21,0-44.42,0-66.63,0c-2.25,0-2.25,0-2.25,2.23C281.36,46.03,281.36,58.97,281.36,71.9z"></path>
&#x9;&#x9;<path d="M36.06,31.42c-10.99,0-21.98,0-32.98,0c-1.85,0-1.91-0.05-1.91-1.84C1.17,21.45,1.2,13.34,1.15,5.22&#xA;&#x9;&#x9;&#x9;C1.14,3.88,1.61,3.47,2.92,3.47C17.3,3.51,31.68,3.5,46.06,3.48c1.02,0,1.74,0.33,2.4,1.1c7.45,8.64,14.93,17.25,22.36,25.91&#xA;&#x9;&#x9;&#x9;c0.69,0.81,1.45,0.86,2.34,0.86c10.25,0,20.5-0.01,30.75,0.01c0.71,0,1.71-0.37,2.05,0.36c0.35,0.75-0.6,1.25-1.06,1.78&#xA;&#x9;&#x9;&#x9;C83.09,58.66,61.26,83.8,39.43,108.94c-1.06,1.23-2.14,2.44-3.18,3.69c-0.36,0.44-1.1,0.84-0.79,1.49c0.27,0.56,1,0.28,1.54,0.31&#xA;&#x9;&#x9;&#x9;c0.69,0.04,1.39,0.01,2.09,0.01c21.15,0,42.3,0,63.45,0c2.48,0,2.48,0.01,2.48,2.45c0,7.84,0,15.68,0,23.51&#xA;&#x9;&#x9;&#x9;c0,1.87-0.12,1.99-1.96,2c-14.29,0-28.57-0.01-42.86,0.02c-1.12,0-1.9-0.35-2.64-1.2c-7.3-8.46-14.65-16.87-21.94-25.35&#xA;&#x9;&#x9;&#x9;c-0.84-0.97-1.67-1.39-2.96-1.38c-9.83,0.05-19.66,0.02-29.5,0.02c-0.65,0-1.3,0.01-1.95-0.01c-0.41-0.01-0.94,0.11-1.16-0.29&#xA;&#x9;&#x9;&#x9;c-0.28-0.53,0.3-0.81,0.58-1.13c23.09-26.62,46.19-53.24,69.28-79.86c0.35-0.4,1.01-0.79,0.74-1.38c-0.3-0.67-1.07-0.4-1.64-0.4&#xA;&#x9;&#x9;&#x9;C58.05,31.41,47.05,31.42,36.06,31.42z"></path>
&#x9;&#x9;<path d="M125.88,72.36c0-13.08,0-26.15,0-39.23c0-2.35,0-2.35,2.28-2.35c8.86,0,17.71,0,26.57,0c1.84,0,1.84,0.01,1.84,1.87&#xA;&#x9;&#x9;&#x9;c0,8.11,0,16.23,0,24.34c0,1.86,0.08,1.94,1.97,1.94c17.16,0,34.31,0,51.47,0c2.17,0,2.19,0.02,2.19,2.16c0,7.79,0,15.58,0,23.37&#xA;&#x9;&#x9;&#x9;c0,2.42,0,2.42-2.36,2.42c-16.92,0-33.85,0-50.77,0c-2.49,0-2.49,0-2.49,2.43c0,7.7-0.02,15.39,0.02,23.09&#xA;&#x9;&#x9;&#x9;c0.01,1.15-0.34,1.55-1.49,1.55c-9.18-0.03-18.36-0.04-27.54,0c-1.37,0.01-1.71-0.54-1.71-1.82&#xA;&#x9;&#x9;&#x9;C125.89,98.89,125.88,85.62,125.88,72.36z"></path>
&#x9;&#x9;<path d="M503.2,72.48c0-13.36,0.02-26.72-0.03-40.07c-0.01-1.34,0.43-1.64,1.66-1.64c9.09,0.04,18.18,0.04,27.27,0&#xA;&#x9;&#x9;&#x9;c1.3-0.01,1.79,0.4,1.79,1.75c-0.03,26.62-0.03,53.25,0,79.87c0,1.13-0.36,1.58-1.51,1.57c-9.32-0.02-18.65-0.01-27.97-0.01&#xA;&#x9;&#x9;&#x9;c-0.78,0-1.25-0.07-1.25-1.12c0.04-13.45,0.03-26.9,0.03-40.35C503.19,72.48,503.2,72.48,503.2,72.48z"></path>
&#x9;&#x9;<path d="M435.5,72.45c0,13.4-0.01,26.81,0.03,40.21c0,1.1-0.36,1.31-1.34,1.31c-9.14-0.03-18.27-0.01-27.41-0.02&#xA;&#x9;&#x9;&#x9;c-1.87,0-1.93-0.07-1.93-1.98c0-23.84,0-47.68,0-71.52c0-2.6-0.01-5.19,0-7.79c0.01-1.72,0.14-1.87,1.79-1.87&#xA;&#x9;&#x9;&#x9;c9.18-0.01,18.37,0.01,27.55-0.02c1.02,0,1.33,0.27,1.33,1.33C435.49,45.55,435.5,59,435.5,72.45z"></path>
&#x9;&#x9;<path d="M191.87,113.87c11.04,0,22.07,0,33.11,0c2.02,0,2.12,0.1,2.12,2.13c0,7.98,0.01,15.95,0,23.93c0,1.76-0.14,1.91-1.9,1.91&#xA;&#x9;&#x9;&#x9;c-14.33,0.01-28.66,0-42.98,0.01c-0.99,0-1.76-0.26-2.44-1.05c-7.27-8.42-14.57-16.82-21.84-25.24c-0.34-0.4-1.02-0.77-0.71-1.37&#xA;&#x9;&#x9;&#x9;c0.29-0.57,1.01-0.3,1.54-0.3C169.8,113.87,180.84,113.87,191.87,113.87z"></path>
&#x9;&#x9;<path d="M191.91,30.86c-10.85,0-21.7,0-32.54,0c-0.28,0-0.56,0.02-0.83-0.01c-0.44-0.04-1.02,0.18-1.27-0.31&#xA;&#x9;&#x9;&#x9;c-0.26-0.51,0.25-0.85,0.53-1.18c7.34-8.48,14.7-16.95,22.03-25.43c0.59-0.69,1.27-1,2.17-1c14.51,0.01,29.02,0.01,43.53,0&#xA;&#x9;&#x9;&#x9;c1.13,0,1.58,0.44,1.58,1.56c-0.02,8.25-0.03,16.5,0.01,24.76c0.01,1.47-0.8,1.62-1.96,1.62&#xA;&#x9;&#x9;&#x9;C214.07,30.85,202.99,30.86,191.91,30.86z"></path>
&#x9;&#x9;<path d="M469.34,113.87c10.57,0,21.15,0,31.72,0.01c0.53,0,1.26-0.28,1.53,0.31c0.26,0.57-0.38,0.98-0.73,1.39&#xA;&#x9;&#x9;&#x9;c-7.23,8.34-14.47,16.66-21.68,25.02c-0.77,0.89-1.58,1.27-2.75,1.26c-5.43-0.05-10.85-0.04-16.28,0&#xA;&#x9;&#x9;&#x9;c-1.06,0.01-1.84-0.34-2.54-1.14c-7.28-8.42-14.58-16.82-21.87-25.23c-0.32-0.37-0.89-0.76-0.67-1.28&#xA;&#x9;&#x9;&#x9;c0.24-0.55,0.91-0.32,1.39-0.32C448.09,113.87,458.72,113.87,469.34,113.87z"></path>
&#x9;&#x9;<path d="M469.27,30.86c-10.34,0-20.68,0-31.02,0c-0.32,0-0.65,0.02-0.97-0.01c-0.4-0.03-0.92,0.15-1.14-0.29&#xA;&#x9;&#x9;&#x9;c-0.26-0.51,0.25-0.85,0.53-1.18c1.1-1.31,2.24-2.6,3.36-3.89c6.08-7,12.17-13.99,18.21-21.02c0.92-1.07,1.88-1.58,3.33-1.56&#xA;&#x9;&#x9;&#x9;c5.28,0.08,10.57,0.06,15.85,0.01c1.17-0.01,1.98,0.37,2.75,1.26c7.21,8.35,14.46,16.67,21.68,25c0.34,0.39,0.98,0.79,0.68,1.39&#xA;&#x9;&#x9;&#x9;c-0.26,0.51-0.93,0.28-1.41,0.28C490.5,30.86,479.88,30.86,469.27,30.86z"></path>
&#x9;&#x9;<path d="M525.95,15.27c-4.52-0.01-7.79-3.21-7.81-7.63c-0.02-4.39,3.3-7.63,7.82-7.64c4.56-0.01,7.93,3.27,7.91,7.71&#xA;&#x9;&#x9;&#x9;C533.84,12.06,530.47,15.28,525.95,15.27z M525.94,13.54c3.2,0.01,5.72-2.6,5.73-5.9c0-3.25-2.63-5.98-5.72-5.95&#xA;&#x9;&#x9;&#x9;c-3.1,0.03-5.59,2.63-5.64,5.88C520.26,10.88,522.76,13.54,525.94,13.54z"></path>
&#x9;&#x9;<path d="M526.32,3c1.15,0.08,2.35,0.47,3.07,1.73c0.22,0.39,0.53,0.86,0.02,1.24c-0.42,0.32-0.88,0.17-1.29-0.12&#xA;&#x9;&#x9;&#x9;c-0.11-0.08-0.21-0.18-0.31-0.28c-0.82-0.77-1.75-1.13-2.76-0.45c-1.1,0.74-1.28,1.89-1.05,3.09c0.22,1.15,0.9,1.92,2.11,2.1&#xA;&#x9;&#x9;&#x9;c0.77,0.12,1.32-0.24,1.79-0.83c0.42-0.52,1.04-0.79,1.57-0.31c0.55,0.49,0.05,1.05-0.26,1.47c-0.87,1.19-2.13,1.65-3.55,1.46&#xA;&#x9;&#x9;&#x9;c-1.82-0.24-3.02-1.35-3.61-3.07C521.06,6.11,523.14,3.01,526.32,3z"></path>
&#x9;</g>
&#x9;<g>
&#x9;&#x9;<path d="M664.97,140.1h-71.73V2.32h67.14c35.43,0,51.39,14.87,51.39,38.05c0,15.31-9.84,25.81-24.5,28.21&#xA;&#x9;&#x9;&#x9;c16.19,3.28,28.65,14,28.65,33.68C715.93,126.1,697.12,140.1,664.97,140.1z M629.32,56.99h26.24c12.68,0,17.71-5.69,17.71-12.25&#xA;&#x9;&#x9;&#x9;c0-7.22-5.03-12.9-17.71-12.9h-26.24V56.99z M629.32,84.77v25.59h29.74c12.91,0,18.59-5.25,18.59-12.69&#xA;&#x9;&#x9;&#x9;c0-7.44-5.68-12.9-18.81-12.9H629.32z"></path>
&#x9;&#x9;<path d="M782,2.32V140.1h-37.18V2.32H782z"></path>
&#x9;</g>
</g>
</svg>